# Created by Open3D 
# object name: polygon0
# number of vertices: 32
# number of triangles: 60
v -0.249338 -1.02147 1.37638 1 0.706 0
vn -0.143955 -0.589747 0.794654
v 0.802124 0.67983 1.37638 1 0.706 0
vn 0.463107 0.3925 0.794654
v 0.645089 -1.57426 -0.32492 1 0.706 0
vn 0.372442 -0.908898 -0.187592
v 1.69655 0.127044 -0.32492 1 0.706 0
vn 0.979504 0.0733489 -0.187592
v -1.69655 -0.127044 0.32492 1 0.706 0
vn -0.979504 -0.0733489 0.187592
v -0.645089 1.57426 0.32492 1 0.706 0
vn -0.372442 0.908898 0.187592
v -0.802124 -0.67983 -1.37638 1 0.706 0
vn -0.463107 -0.3925 -0.794654
v 0.249338 1.02147 -1.37638 1 0.706 0
vn 0.143955 0.589747 -0.794654
v -1.04853 -0.0785175 1.37638 1 0.706 0
vn -0.605367 -0.0453321 0.794654
v 0.398687 -0.972945 -1.37638 1 0.706 0
vn 0.230182 -0.56173 -0.794654
v -0.398687 0.972945 1.37638 1 0.706 0
vn -0.230182 0.56173 0.794654
v 1.04853 0.0785175 -1.37638 1 0.706 0
vn 0.605367 0.0453321 -0.794654
v 0.894427 -0.552786 1.37638 1 0.706 0
vn 0.516398 -0.319151 0.794654
v -1.44721 0.894427 -0.32492 1 0.706 0
vn -0.835549 0.516398 -0.187592
v 1.44721 -0.894427 0.32492 1 0.706 0
vn 0.835549 -0.516398 0.187592
v -0.894427 0.552786 -1.37638 1 0.706 0
vn -0.516398 0.319151 -0.794654
v -0.403437 -1.65278 0.32492 1 0.706 0
vn -0.232925 -0.95423 0.187592
v -1.29786 -1.09999 -0.32492 1 0.706 0
vn -0.749322 -0.635079 -0.187592
v 1.29786 1.09999 0.32492 1 0.706 0
vn 0.749322 0.635079 0.187592
v 0.403437 1.65278 -0.32492 1 0.706 0
vn 0.232925 0.95423 -0.187592
v -1.66533e-16 4.12723e-17 1.37638 1 0.706 0
vn 1.19982e-17 -1.60224e-16 1
v -0.939144 -0.795959 0.615537 1 0.706 0
vn -0.682328 -0.578298 0.447214
v 0.466791 -1.13914 0.615537 1 0.706 0
vn 0.339144 -0.827636 0.447214
v -1.04721 0.647214 0.615537 1 0.706 0
vn -0.760845 0.470228 0.447214
v -1.22764 -0.0919299 -0.615537 1 0.706 0
vn -0.89193 -0.066791 -0.447214
v -0.29193 -1.19596 -0.615537 1 0.706 0
vn -0.212099 -0.868915 -0.447214
v 1.22764 0.0919299 0.615537 1 0.706 0
vn 0.89193 0.066791 0.447214
v -0.466791 1.13914 -0.615537 1 0.706 0
vn -0.339144 0.827636 -0.447214
v 0.29193 1.19596 0.615537 1 0.706 0
vn 0.212099 0.868915 0.447214
v 1.66533e-16 -4.12723e-17 -1.37638 1 0.706 0
vn -1.19982e-17 1.60224e-16 -1
v 1.04721 -0.647214 -0.615537 1 0.706 0
vn 0.760845 -0.470228 -0.447214
v 0.939144 0.795959 -0.615537 1 0.706 0
vn 0.682328 0.578298 -0.447214
f 1//1 13//13 21//21
f 13//13 2//2 21//21
f 2//2 11//11 21//21
f 11//11 9//9 21//21
f 9//9 1//1 21//21
f 1//1 9//9 22//22
f 9//9 5//5 22//22
f 5//5 18//18 22//22
f 18//18 17//17 22//22
f 17//17 1//1 22//22
f 1//1 17//17 23//23
f 17//17 3//3 23//23
f 3//3 15//15 23//23
f 15//15 13//13 23//23
f 13//13 1//1 23//23
f 9//9 11//11 24//24
f 11//11 6//6 24//24
f 6//6 14//14 24//24
f 14//14 5//5 24//24
f 5//5 9//9 24//24
f 5//5 14//14 25//25
f 14//14 16//16 25//25
f 16//16 7//7 25//25
f 7//7 18//18 25//25
f 18//18 5//5 25//25
f 18//18 7//7 26//26
f 7//7 10//10 26//26
f 10//10 3//3 26//26
f 3//3 17//17 26//26
f 17//17 18//18 26//26
f 13//13 15//15 27//27
f 15//15 4//4 27//27
f 4//4 19//19 27//27
f 19//19 2//2 27//27
f 2//2 13//13 27//27
f 14//14 6//6 28//28
f 6//6 20//20 28//28
f 20//20 8//8 28//28
f 8//8 16//16 28//28
f 16//16 14//14 28//28
f 11//11 2//2 29//29
f 2//2 19//19 29//29
f 19//19 20//20 29//29
f 20//20 6//6 29//29
f 6//6 11//11 29//29
f 8//8 12//12 30//30
f 12//12 10//10 30//30
f 10//10 7//7 30//30
f 7//7 16//16 30//30
f 16//16 8//8 30//30
f 4//4 15//15 31//31
f 15//15 3//3 31//31
f 3//3 10//10 31//31
f 10//10 12//12 31//31
f 12//12 4//4 31//31
f 12//12 8//8 32//32
f 8//8 20//20 32//32
f 20//20 19//19 32//32
f 19//19 4//4 32//32
f 4//4 12//12 32//32
